<?xml version="1.0" standalone="no"?>
<svg xmlns="http://www.w3.org/2000/svg" width="500" height="500"><defs><clipPath id="clip-path-dot-color"><path d="M 18 178v 16h 16v -8a 8 8, 0, 0, 0, -8 -8" transform="rotate(-90,26,186)"/><rect x="18" y="194" width="16" height="16" transform="rotate(0,26,202)"/><path d="M 18 210v 16h 16v -8a 8 8, 0, 0, 0, -8 -8" transform="rotate(180,26,218)"/><path d="M 18 274v 16h 8a 8 8, 0, 0, 0, 0 -16" transform="rotate(-90,26,282)"/><path d="M 18 290v 16h 16v -8a 8 8, 0, 0, 0, -8 -8" transform="rotate(180,26,298)"/><path d="M 18 322v 16h 8a 8 8, 0, 0, 0, 0 -16" transform="rotate(-90,26,330)"/><path d="M 18 338v 16h 16v -8a 8 8, 0, 0, 0, -8 -8" transform="rotate(180,26,346)"/><path d="M 34 162v 16h 16v -8a 8 8, 0, 0, 0, -8 -8" transform="rotate(-90,42,170)"/><path d="M 34 178v 16h 16v -8a 8 8, 0, 0, 0, -8 -8" transform="rotate(90,42,186)"/><rect x="34" y="210" width="16" height="16" transform="rotate(0,42,218)"/><path d="M 34 242v 16h 16v -8a 8 8, 0, 0, 0, -8 -8" transform="rotate(-90,42,250)"/><path d="M 34 258v 16h 16v -8a 8 8, 0, 0, 0, -8 -8" transform="rotate(180,42,266)"/><rect x="34" y="290" width="16" height="16" transform="rotate(0,42,298)"/><path d="M 34 306v 16h 16v -8a 8 8, 0, 0, 0, -8 -8" transform="rotate(180,42,314)"/><rect x="34" y="338" width="16" height="16" transform="rotate(0,42,346)"/><path d="M 50 162v 16h 8a 8 8, 0, 0, 0, 0 -16" transform="rotate(0,58,170)"/><rect x="50" y="210" width="16" height="16" transform="rotate(0,58,218)"/><path d="M 50 242v 16h 16v -8a 8 8, 0, 0, 0, -8 -8" transform="rotate(0,58,250)"/><rect x="50" y="258" width="16" height="16" transform="rotate(0,58,266)"/><rect x="50" y="274" width="16" height="16" transform="rotate(0,58,282)"/><rect x="50" y="290" width="16" height="16" transform="rotate(0,58,298)"/><rect x="50" y="306" width="16" height="16" transform="rotate(0,58,314)"/><rect x="50" y="322" width="16" height="16" transform="rotate(0,58,330)"/><rect x="50" y="338" width="16" height="16" transform="rotate(0,58,346)"/><circle cx="74" cy="154" r="8" transform="rotate(0,74,154)"/><path d="M 66 178v 16h 8a 8 8, 0, 0, 0, 0 -16" transform="rotate(180,74,186)"/><path d="M 66 210v 16h 16v -8a 8 8, 0, 0, 0, -8 -8" transform="rotate(0,74,218)"/><path d="M 66 226v 16h 8a 8 8, 0, 0, 0, 0 -16" transform="rotate(90,74,234)"/><path d="M 66 274v 16h 16v -8a 8 8, 0, 0, 0, -8 -8" transform="rotate(0,74,282)"/><rect x="66" y="290" width="16" height="16" transform="rotate(0,74,298)"/><rect x="66" y="306" width="16" height="16" transform="rotate(0,74,314)"/><path d="M 66 338v 16h 8a 8 8, 0, 0, 0, 0 -16" transform="rotate(0,74,346)"/><rect x="82" y="178" width="16" height="16" transform="rotate(0,90,186)"/><path d="M 82 194v 16h 16v -8a 8 8, 0, 0, 0, -8 -8" transform="rotate(180,90,202)"/><circle cx="90" cy="266" r="8" transform="rotate(0,90,266)"/><rect x="82" y="306" width="16" height="16" transform="rotate(0,90,314)"/><path d="M 98 146v 16h 16v -8a 8 8, 0, 0, 0, -8 -8" transform="rotate(-90,106,154)"/><rect x="98" y="162" width="16" height="16" transform="rotate(0,106,170)"/><rect x="98" y="178" width="16" height="16" transform="rotate(0,106,186)"/><path d="M 98 194v 16h 16v -8a 8 8, 0, 0, 0, -8 -8" transform="rotate(90,106,202)"/><path d="M 98 226v 16h 8a 8 8, 0, 0, 0, 0 -16" transform="rotate(-90,106,234)"/><path d="M 98 242v 16h 16v -8a 8 8, 0, 0, 0, -8 -8" transform="rotate(180,106,250)"/><path d="M 98 290v 16h 8a 8 8, 0, 0, 0, 0 -16" transform="rotate(-90,106,298)"/><rect x="98" y="306" width="16" height="16" transform="rotate(0,106,314)"/><path d="M 98 338v 16h 8a 8 8, 0, 0, 0, 0 -16" transform="rotate(180,106,346)"/><rect x="114" y="146" width="16" height="16" transform="rotate(0,122,154)"/><path d="M 114 178v 16h 8a 8 8, 0, 0, 0, 0 -16" transform="rotate(0,122,186)"/><path d="M 114 210v 16h 8a 8 8, 0, 0, 0, 0 -16" transform="rotate(180,122,218)"/><path d="M 114 242v 16h 8a 8 8, 0, 0, 0, 0 -16" transform="rotate(0,122,250)"/><circle cx="122" cy="282" r="8" transform="rotate(0,122,282)"/><path d="M 114 306v 16h 8a 8 8, 0, 0, 0, 0 -16" transform="rotate(0,122,314)"/><path d="M 114 338v 16h 8a 8 8, 0, 0, 0, 0 -16" transform="rotate(0,122,346)"/><path d="M 130 146v 16h 8a 8 8, 0, 0, 0, 0 -16" transform="rotate(0,138,154)"/><path d="M 130 194v 16h 16v -8a 8 8, 0, 0, 0, -8 -8" transform="rotate(-90,138,202)"/><rect x="130" y="210" width="16" height="16" transform="rotate(0,138,218)"/><path d="M 130 226v 16h 8a 8 8, 0, 0, 0, 0 -16" transform="rotate(90,138,234)"/><path d="M 130 290v 16h 8a 8 8, 0, 0, 0, 0 -16" transform="rotate(180,138,298)"/><path d="M 146 34v 16h 16v -8a 8 8, 0, 0, 0, -8 -8" transform="rotate(-90,154,42)"/><path d="M 146 50v 16h 16v -8a 8 8, 0, 0, 0, -8 -8" transform="rotate(180,154,58)"/><circle cx="154" cy="122" r="8" transform="rotate(0,154,122)"/><circle cx="154" cy="170" r="8" transform="rotate(0,154,170)"/><rect x="146" y="194" width="16" height="16" transform="rotate(0,154,202)"/><path d="M 146 242v 16h 8a 8 8, 0, 0, 0, 0 -16" transform="rotate(-90,154,250)"/><rect x="146" y="258" width="16" height="16" transform="rotate(0,154,266)"/><rect x="146" y="274" width="16" height="16" transform="rotate(0,154,282)"/><path d="M 146 290v 16h 16v -8a 8 8, 0, 0, 0, -8 -8" transform="rotate(90,154,298)"/><path d="M 146 322v 16h 8a 8 8, 0, 0, 0, 0 -16" transform="rotate(-90,154,330)"/><path d="M 146 338v 16h 16v -8a 8 8, 0, 0, 0, -8 -8" transform="rotate(180,154,346)"/><path d="M 146 370v 16h 16v -8a 8 8, 0, 0, 0, -8 -8" transform="rotate(-90,154,378)"/><path d="M 146 386v 16h 16v -8a 8 8, 0, 0, 0, -8 -8" transform="rotate(180,154,394)"/><path d="M 146 418v 16h 8a 8 8, 0, 0, 0, 0 -16" transform="rotate(180,154,426)"/><path d="M 162 34v 16h 16v -8a 8 8, 0, 0, 0, -8 -8" transform="rotate(0,170,42)"/><rect x="162" y="50" width="16" height="16" transform="rotate(0,170,58)"/><path d="M 162 66v 16h 16v -8a 8 8, 0, 0, 0, -8 -8" transform="rotate(180,170,74)"/><path d="M 162 98v 16h 8a 8 8, 0, 0, 0, 0 -16" transform="rotate(180,170,106)"/><circle cx="170" cy="154" r="8" transform="rotate(0,170,154)"/><path d="M 162 178v 16h 8a 8 8, 0, 0, 0, 0 -16" transform="rotate(-90,170,186)"/><rect x="162" y="194" width="16" height="16" transform="rotate(0,170,202)"/><rect x="162" y="210" width="16" height="16" transform="rotate(0,170,218)"/><path d="M 162 226v 16h 8a 8 8, 0, 0, 0, 0 -16" transform="rotate(90,170,234)"/><path d="M 162 258v 16h 16v -8a 8 8, 0, 0, 0, -8 -8" transform="rotate(0,170,266)"/><rect x="162" y="274" width="16" height="16" transform="rotate(0,170,282)"/><rect x="162" y="338" width="16" height="16" transform="rotate(0,170,346)"/><rect x="162" y="354" width="16" height="16" transform="rotate(0,170,362)"/><rect x="162" y="370" width="16" height="16" transform="rotate(0,170,378)"/><path d="M 162 386v 16h 16v -8a 8 8, 0, 0, 0, -8 -8" transform="rotate(90,170,394)"/><rect x="162" y="418" width="16" height="16" transform="rotate(0,170,426)"/><path d="M 162 450v 16h 8a 8 8, 0, 0, 0, 0 -16" transform="rotate(-90,170,458)"/><path d="M 162 466v 16h 16v -8a 8 8, 0, 0, 0, -8 -8" transform="rotate(180,170,474)"/><circle cx="186" cy="26" r="8" transform="rotate(0,186,26)"/><rect x="178" y="50" width="16" height="16" transform="rotate(0,186,58)"/><rect x="178" y="66" width="16" height="16" transform="rotate(0,186,74)"/><rect x="178" y="98" width="16" height="16" transform="rotate(0,186,106)"/><rect x="178" y="114" width="16" height="16" transform="rotate(0,186,122)"/><path d="M 178 130v 16h 16v -8a 8 8, 0, 0, 0, -8 -8" transform="rotate(180,186,138)"/><path d="M 178 162v 16h 8a 8 8, 0, 0, 0, 0 -16" transform="rotate(180,186,170)"/><rect x="178" y="274" width="16" height="16" transform="rotate(0,186,282)"/><path d="M 178 290v 16h 8a 8 8, 0, 0, 0, 0 -16" transform="rotate(90,186,298)"/><rect x="178" y="338" width="16" height="16" transform="rotate(0,186,346)"/><path d="M 178 354v 16h 16v -8a 8 8, 0, 0, 0, -8 -8" transform="rotate(90,186,362)"/><rect x="178" y="418" width="16" height="16" transform="rotate(0,186,426)"/><path d="M 178 434v 16h 8a 8 8, 0, 0, 0, 0 -16" transform="rotate(90,186,442)"/><path d="M 178 466v 16h 8a 8 8, 0, 0, 0, 0 -16" transform="rotate(0,186,474)"/><rect x="194" y="50" width="16" height="16" transform="rotate(0,202,58)"/><rect x="194" y="66" width="16" height="16" transform="rotate(0,202,74)"/><path d="M 194 98v 16h 8a 8 8, 0, 0, 0, 0 -16" transform="rotate(0,202,106)"/><rect x="194" y="130" width="16" height="16" transform="rotate(0,202,138)"/><path d="M 194 162v 16h 16v -8a 8 8, 0, 0, 0, -8 -8" transform="rotate(0,202,170)"/><rect x="194" y="178" width="16" height="16" transform="rotate(0,202,186)"/><path d="M 194 194v 16h 8a 8 8, 0, 0, 0, 0 -16" transform="rotate(90,202,202)"/><path d="M 194 242v 16h 8a 8 8, 0, 0, 0, 0 -16" transform="rotate(180,202,250)"/><rect x="194" y="274" width="16" height="16" transform="rotate(0,202,282)"/><path d="M 194 306v 16h 8a 8 8, 0, 0, 0, 0 -16" transform="rotate(-90,202,314)"/><rect x="194" y="322" width="16" height="16" transform="rotate(0,202,330)"/><rect x="194" y="338" width="16" height="16" transform="rotate(0,202,346)"/><path d="M 194 370v 16h 16v -8a 8 8, 0, 0, 0, -8 -8" transform="rotate(-90,202,378)"/><rect x="194" y="386" width="16" height="16" transform="rotate(0,202,394)"/><rect x="194" y="402" width="16" height="16" transform="rotate(0,202,410)"/><rect x="194" y="418" width="16" height="16" transform="rotate(0,202,426)"/><circle cx="218" cy="26" r="8" transform="rotate(0,218,26)"/><rect x="210" y="50" width="16" height="16" transform="rotate(0,218,58)"/><rect x="210" y="66" width="16" height="16" transform="rotate(0,218,74)"/><path d="M 210 82v 16h 8a 8 8, 0, 0, 0, 0 -16" transform="rotate(90,218,90)"/><path d="M 210 114v 16h 8a 8 8, 0, 0, 0, 0 -16" transform="rotate(-90,218,122)"/><rect x="210" y="130" width="16" height="16" transform="rotate(0,218,138)"/><path d="M 210 146v 16h 16v -8a 8 8, 0, 0, 0, -8 -8" transform="rotate(180,218,154)"/><path d="M 210 210v 16h 8a 8 8, 0, 0, 0, 0 -16" transform="rotate(-90,218,218)"/><rect x="210" y="226" width="16" height="16" transform="rotate(0,218,234)"/><rect x="210" y="242" width="16" height="16" transform="rotate(0,218,250)"/><rect x="210" y="274" width="16" height="16" transform="rotate(0,218,282)"/><rect x="210" y="338" width="16" height="16" transform="rotate(0,218,346)"/><rect x="210" y="354" width="16" height="16" transform="rotate(0,218,362)"/><rect x="210" y="370" width="16" height="16" transform="rotate(0,218,378)"/><rect x="210" y="418" width="16" height="16" transform="rotate(0,218,426)"/><path d="M 210 450v 16h 8a 8 8, 0, 0, 0, 0 -16" transform="rotate(180,218,458)"/><rect x="226" y="50" width="16" height="16" transform="rotate(0,234,58)"/><path d="M 226 66v 16h 16v -8a 8 8, 0, 0, 0, -8 -8" transform="rotate(90,234,74)"/><circle cx="234" cy="106" r="8" transform="rotate(0,234,106)"/><rect x="226" y="146" width="16" height="16" transform="rotate(0,234,154)"/><path d="M 226 226v 16h 16v -8a 8 8, 0, 0, 0, -8 -8" transform="rotate(0,234,234)"/><rect x="226" y="242" width="16" height="16" transform="rotate(0,234,250)"/><rect x="226" y="258" width="16" height="16" transform="rotate(0,234,266)"/><rect x="226" y="274" width="16" height="16" transform="rotate(0,234,282)"/><path d="M 226 306v 16h 16v -8a 8 8, 0, 0, 0, -8 -8" transform="rotate(-90,234,314)"/><rect x="226" y="322" width="16" height="16" transform="rotate(0,234,330)"/><path d="M 226 338v 16h 16v -8a 8 8, 0, 0, 0, -8 -8" transform="rotate(90,234,346)"/><rect x="226" y="370" width="16" height="16" transform="rotate(0,234,378)"/><rect x="226" y="418" width="16" height="16" transform="rotate(0,234,426)"/><path d="M 226 450v 16h 16v -8a 8 8, 0, 0, 0, -8 -8" transform="rotate(0,234,458)"/><path d="M 226 466v 16h 16v -8a 8 8, 0, 0, 0, -8 -8" transform="rotate(180,234,474)"/><path d="M 242 18v 16h 16v -8a 8 8, 0, 0, 0, -8 -8" transform="rotate(-90,250,26)"/><rect x="242" y="34" width="16" height="16" transform="rotate(0,250,42)"/><rect x="242" y="50" width="16" height="16" transform="rotate(0,250,58)"/><circle cx="250" cy="90" r="8" transform="rotate(0,250,90)"/><circle cx="250" cy="122" r="8" transform="rotate(0,250,122)"/><path d="M 242 146v 16h 8a 8 8, 0, 0, 0, 0 -16" transform="rotate(0,250,154)"/><path d="M 242 178v 16h 16v -8a 8 8, 0, 0, 0, -8 -8" transform="rotate(-90,250,186)"/><path d="M 242 194v 16h 8a 8 8, 0, 0, 0, 0 -16" transform="rotate(90,250,202)"/><path d="M 242 242v 16h 8a 8 8, 0, 0, 0, 0 -16" transform="rotate(0,250,250)"/><path d="M 242 274v 16h 16v -8a 8 8, 0, 0, 0, -8 -8" transform="rotate(0,250,282)"/><rect x="242" y="290" width="16" height="16" transform="rotate(0,250,298)"/><rect x="242" y="306" width="16" height="16" transform="rotate(0,250,314)"/><rect x="242" y="322" width="16" height="16" transform="rotate(0,250,330)"/><path d="M 242 354v 16h 8a 8 8, 0, 0, 0, 0 -16" transform="rotate(-90,250,362)"/><rect x="242" y="370" width="16" height="16" transform="rotate(0,250,378)"/><rect x="242" y="418" width="16" height="16" transform="rotate(0,250,426)"/><path d="M 242 434v 16h 8a 8 8, 0, 0, 0, 0 -16" transform="rotate(90,250,442)"/><path d="M 242 466v 16h 8a 8 8, 0, 0, 0, 0 -16" transform="rotate(0,250,474)"/><path d="M 258 18v 16h 16v -8a 8 8, 0, 0, 0, -8 -8" transform="rotate(0,266,26)"/><rect x="258" y="34" width="16" height="16" transform="rotate(0,266,42)"/><rect x="258" y="50" width="16" height="16" transform="rotate(0,266,58)"/><path d="M 258 66v 16h 8a 8 8, 0, 0, 0, 0 -16" transform="rotate(90,266,74)"/><path d="M 258 98v 16h 8a 8 8, 0, 0, 0, 0 -16" transform="rotate(180,266,106)"/><circle cx="266" cy="138" r="8" transform="rotate(0,266,138)"/><rect x="258" y="178" width="16" height="16" transform="rotate(0,266,186)"/><circle cx="266" cy="234" r="8" transform="rotate(0,266,234)"/><rect x="258" y="306" width="16" height="16" transform="rotate(0,266,314)"/><rect x="258" y="322" width="16" height="16" transform="rotate(0,266,330)"/><rect x="258" y="370" width="16" height="16" transform="rotate(0,266,378)"/><path d="M 258 418v 16h 8a 8 8, 0, 0, 0, 0 -16" transform="rotate(0,266,426)"/><path d="M 258 450v 16h 8a 8 8, 0, 0, 0, 0 -16" transform="rotate(180,266,458)"/><rect x="274" y="34" width="16" height="16" transform="rotate(0,282,42)"/><path d="M 274 82v 16h 16v -8a 8 8, 0, 0, 0, -8 -8" transform="rotate(-90,282,90)"/><rect x="274" y="98" width="16" height="16" transform="rotate(0,282,106)"/><path d="M 274 114v 16h 8a 8 8, 0, 0, 0, 0 -16" transform="rotate(90,282,122)"/><path d="M 274 146v 16h 8a 8 8, 0, 0, 0, 0 -16" transform="rotate(-90,282,154)"/><rect x="274" y="162" width="16" height="16" transform="rotate(0,282,170)"/><rect x="274" y="178" width="16" height="16" transform="rotate(0,282,186)"/><path d="M 274 194v 16h 8a 8 8, 0, 0, 0, 0 -16" transform="rotate(90,282,202)"/><path d="M 274 258v 16h 8a 8 8, 0, 0, 0, 0 -16" transform="rotate(-90,282,266)"/><rect x="274" y="274" width="16" height="16" transform="rotate(0,282,282)"/><rect x="274" y="290" width="16" height="16" transform="rotate(0,282,298)"/><rect x="274" y="306" width="16" height="16" transform="rotate(0,282,314)"/><rect x="274" y="322" width="16" height="16" transform="rotate(0,282,330)"/><path d="M 274 338v 16h 8a 8 8, 0, 0, 0, 0 -16" transform="rotate(90,282,346)"/><rect x="274" y="370" width="16" height="16" transform="rotate(0,282,378)"/><path d="M 274 386v 16h 16v -8a 8 8, 0, 0, 0, -8 -8" transform="rotate(180,282,394)"/><path d="M 274 450v 16h 16v -8a 8 8, 0, 0, 0, -8 -8" transform="rotate(0,282,458)"/><path d="M 274 466v 16h 16v -8a 8 8, 0, 0, 0, -8 -8" transform="rotate(180,282,474)"/><rect x="290" y="34" width="16" height="16" transform="rotate(0,298,42)"/><path d="M 290 50v 16h 8a 8 8, 0, 0, 0, 0 -16" transform="rotate(90,298,58)"/><path d="M 290 82v 16h 8a 8 8, 0, 0, 0, 0 -16" transform="rotate(0,298,90)"/><path d="M 290 130v 16h 8a 8 8, 0, 0, 0, 0 -16" transform="rotate(180,298,138)"/><path d="M 290 162v 16h 16v -8a 8 8, 0, 0, 0, -8 -8" transform="rotate(0,298,170)"/><path d="M 290 178v 16h 16v -8a 8 8, 0, 0, 0, -8 -8" transform="rotate(90,298,186)"/><path d="M 290 226v 16h 8a 8 8, 0, 0, 0, 0 -16" transform="rotate(180,298,234)"/><rect x="290" y="274" width="16" height="16" transform="rotate(0,298,282)"/><path d="M 290 306v 16h 8a 8 8, 0, 0, 0, 0 -16" transform="rotate(0,298,314)"/><path d="M 290 370v 16h 16v -8a 8 8, 0, 0, 0, -8 -8" transform="rotate(0,298,378)"/><rect x="290" y="386" width="16" height="16" transform="rotate(0,298,394)"/><circle cx="298" cy="426" r="8" transform="rotate(0,298,426)"/><rect x="290" y="466" width="16" height="16" transform="rotate(0,298,474)"/><path d="M 306 18v 16h 8a 8 8, 0, 0, 0, 0 -16" transform="rotate(-90,314,26)"/><path d="M 306 34v 16h 16v -8a 8 8, 0, 0, 0, -8 -8" transform="rotate(90,314,42)"/><circle cx="314" cy="74" r="8" transform="rotate(0,314,74)"/><path d="M 306 114v 16h 8a 8 8, 0, 0, 0, 0 -16" transform="rotate(-90,314,122)"/><rect x="306" y="130" width="16" height="16" transform="rotate(0,314,138)"/><path d="M 306 146v 16h 16v -8a 8 8, 0, 0, 0, -8 -8" transform="rotate(180,314,154)"/><path d="M 306 194v 16h 16v -8a 8 8, 0, 0, 0, -8 -8" transform="rotate(-90,314,202)"/><rect x="306" y="210" width="16" height="16" transform="rotate(0,314,218)"/><rect x="306" y="226" width="16" height="16" transform="rotate(0,314,234)"/><path d="M 306 242v 16h 8a 8 8, 0, 0, 0, 0 -16" transform="rotate(90,314,250)"/><rect x="306" y="274" width="16" height="16" transform="rotate(0,314,282)"/><path d="M 306 290v 16h 8a 8 8, 0, 0, 0, 0 -16" transform="rotate(90,314,298)"/><path d="M 306 322v 16h 8a 8 8, 0, 0, 0, 0 -16" transform="rotate(180,314,330)"/><rect x="306" y="386" width="16" height="16" transform="rotate(0,314,394)"/><circle cx="314" cy="442" r="8" transform="rotate(0,314,442)"/><path d="M 306 466v 16h 8a 8 8, 0, 0, 0, 0 -16" transform="rotate(0,314,474)"/><path d="M 322 50v 16h 8a 8 8, 0, 0, 0, 0 -16" transform="rotate(180,330,58)"/><path d="M 322 82v 16h 8a 8 8, 0, 0, 0, 0 -16" transform="rotate(180,330,90)"/><path d="M 322 130v 16h 16v -8a 8 8, 0, 0, 0, -8 -8" transform="rotate(0,330,138)"/><rect x="322" y="146" width="16" height="16" transform="rotate(0,330,154)"/><path d="M 322 178v 16h 8a 8 8, 0, 0, 0, 0 -16" transform="rotate(-90,330,186)"/><rect x="322" y="194" width="16" height="16" transform="rotate(0,330,202)"/><path d="M 322 210v 16h 16v -8a 8 8, 0, 0, 0, -8 -8" transform="rotate(90,330,218)"/><path d="M 322 258v 16h 8a 8 8, 0, 0, 0, 0 -16" transform="rotate(-90,330,266)"/><path d="M 322 274v 16h 16v -8a 8 8, 0, 0, 0, -8 -8" transform="rotate(90,330,282)"/><path d="M 322 322v 16h 16v -8a 8 8, 0, 0, 0, -8 -8" transform="rotate(0,330,330)"/><rect x="322" y="338" width="16" height="16" transform="rotate(0,330,346)"/><rect x="322" y="354" width="16" height="16" transform="rotate(0,330,362)"/><rect x="322" y="370" width="16" height="16" transform="rotate(0,330,378)"/><rect x="322" y="386" width="16" height="16" transform="rotate(0,330,394)"/><rect x="322" y="402" width="16" height="16" transform="rotate(0,330,410)"/><path d="M 322 418v 16h 8a 8 8, 0, 0, 0, 0 -16" transform="rotate(90,330,426)"/><path d="M 322 450v 16h 8a 8 8, 0, 0, 0, 0 -16" transform="rotate(180,330,458)"/><path d="M 338 18v 16h 8a 8 8, 0, 0, 0, 0 -16" transform="rotate(-90,346,26)"/><rect x="338" y="34" width="16" height="16" transform="rotate(0,346,42)"/><path d="M 338 50v 16h 16v -8a 8 8, 0, 0, 0, -8 -8" transform="rotate(90,346,58)"/><path d="M 338 82v 16h 8a 8 8, 0, 0, 0, 0 -16" transform="rotate(0,346,90)"/><circle cx="346" cy="122" r="8" transform="rotate(0,346,122)"/><rect x="338" y="146" width="16" height="16" transform="rotate(0,346,154)"/><rect x="338" y="338" width="16" height="16" transform="rotate(0,346,346)"/><rect x="338" y="354" width="16" height="16" transform="rotate(0,346,362)"/><rect x="338" y="370" width="16" height="16" transform="rotate(0,346,378)"/><rect x="338" y="386" width="16" height="16" transform="rotate(0,346,394)"/><rect x="338" y="402" width="16" height="16" transform="rotate(0,346,410)"/><path d="M 338 450v 16h 8a 8 8, 0, 0, 0, 0 -16" transform="rotate(0,346,458)"/><path d="M 354 146v 16h 16v -8a 8 8, 0, 0, 0, -8 -8" transform="rotate(0,362,154)"/><rect x="354" y="162" width="16" height="16" transform="rotate(0,362,170)"/><rect x="354" y="178" width="16" height="16" transform="rotate(0,362,186)"/><rect x="354" y="194" width="16" height="16" transform="rotate(0,362,202)"/><rect x="354" y="210" width="16" height="16" transform="rotate(0,362,218)"/><rect x="354" y="226" width="16" height="16" transform="rotate(0,362,234)"/><rect x="354" y="242" width="16" height="16" transform="rotate(0,362,250)"/><rect x="354" y="258" width="16" height="16" transform="rotate(0,362,266)"/><rect x="354" y="274" width="16" height="16" transform="rotate(0,362,282)"/><path d="M 354 290v 16h 8a 8 8, 0, 0, 0, 0 -16" transform="rotate(90,362,298)"/><path d="M 354 322v 16h 8a 8 8, 0, 0, 0, 0 -16" transform="rotate(-90,362,330)"/><rect x="354" y="338" width="16" height="16" transform="rotate(0,362,346)"/><rect x="354" y="402" width="16" height="16" transform="rotate(0,362,410)"/><path d="M 354 418v 16h 16v -8a 8 8, 0, 0, 0, -8 -8" transform="rotate(180,362,426)"/><path d="M 354 466v 16h 8a 8 8, 0, 0, 0, 0 -16" transform="rotate(180,362,474)"/><path d="M 370 178v 16h 16v -8a 8 8, 0, 0, 0, -8 -8" transform="rotate(0,378,186)"/><path d="M 370 194v 16h 16v -8a 8 8, 0, 0, 0, -8 -8" transform="rotate(90,378,202)"/><path d="M 370 258v 16h 8a 8 8, 0, 0, 0, 0 -16" transform="rotate(0,378,266)"/><rect x="370" y="338" width="16" height="16" transform="rotate(0,378,346)"/><circle cx="378" cy="378" r="8" transform="rotate(0,378,378)"/><rect x="370" y="402" width="16" height="16" transform="rotate(0,378,410)"/><rect x="370" y="418" width="16" height="16" transform="rotate(0,378,426)"/><path d="M 370 434v 16h 8a 8 8, 0, 0, 0, 0 -16" transform="rotate(90,378,442)"/><rect x="370" y="466" width="16" height="16" transform="rotate(0,378,474)"/><circle cx="394" cy="170" r="8" transform="rotate(0,394,170)"/><path d="M 386 226v 16h 8a 8 8, 0, 0, 0, 0 -16" transform="rotate(180,394,234)"/><path d="M 386 274v 16h 8a 8 8, 0, 0, 0, 0 -16" transform="rotate(-90,394,282)"/><path d="M 386 290v 16h 16v -8a 8 8, 0, 0, 0, -8 -8" transform="rotate(180,394,298)"/><path d="M 386 322v 16h 16v -8a 8 8, 0, 0, 0, -8 -8" transform="rotate(-90,394,330)"/><rect x="386" y="338" width="16" height="16" transform="rotate(0,394,346)"/><rect x="386" y="402" width="16" height="16" transform="rotate(0,394,410)"/><path d="M 386 418v 16h 16v -8a 8 8, 0, 0, 0, -8 -8" transform="rotate(90,394,426)"/><path d="M 386 450v 16h 8a 8 8, 0, 0, 0, 0 -16" transform="rotate(-90,394,458)"/><rect x="386" y="466" width="16" height="16" transform="rotate(0,394,474)"/><circle cx="410" cy="186" r="8" transform="rotate(0,410,186)"/><path d="M 402 210v 16h 8a 8 8, 0, 0, 0, 0 -16" transform="rotate(-90,410,218)"/><path d="M 402 226v 16h 16v -8a 8 8, 0, 0, 0, -8 -8" transform="rotate(90,410,234)"/><circle cx="410" cy="266" r="8" transform="rotate(0,410,266)"/><rect x="402" y="290" width="16" height="16" transform="rotate(0,410,298)"/><rect x="402" y="322" width="16" height="16" transform="rotate(0,410,330)"/><rect x="402" y="338" width="16" height="16" transform="rotate(0,410,346)"/><rect x="402" y="354" width="16" height="16" transform="rotate(0,410,362)"/><rect x="402" y="370" width="16" height="16" transform="rotate(0,410,378)"/><rect x="402" y="386" width="16" height="16" transform="rotate(0,410,394)"/><rect x="402" y="402" width="16" height="16" transform="rotate(0,410,410)"/><path d="M 402 466v 16h 8a 8 8, 0, 0, 0, 0 -16" transform="rotate(0,410,474)"/><path d="M 418 162v 16h 8a 8 8, 0, 0, 0, 0 -16" transform="rotate(180,426,170)"/><circle cx="426" cy="202" r="8" transform="rotate(0,426,202)"/><path d="M 418 242v 16h 8a 8 8, 0, 0, 0, 0 -16" transform="rotate(180,426,250)"/><rect x="418" y="290" width="16" height="16" transform="rotate(0,426,298)"/><path d="M 418 322v 16h 16v -8a 8 8, 0, 0, 0, -8 -8" transform="rotate(0,426,330)"/><path d="M 418 338v 16h 16v -8a 8 8, 0, 0, 0, -8 -8" transform="rotate(90,426,346)"/><path d="M 418 386v 16h 16v -8a 8 8, 0, 0, 0, -8 -8" transform="rotate(0,426,394)"/><rect x="418" y="402" width="16" height="16" transform="rotate(0,426,410)"/><path d="M 418 450v 16h 8a 8 8, 0, 0, 0, 0 -16" transform="rotate(180,426,458)"/><path d="M 434 146v 16h 16v -8a 8 8, 0, 0, 0, -8 -8" transform="rotate(-90,442,154)"/><rect x="434" y="162" width="16" height="16" transform="rotate(0,442,170)"/><path d="M 434 178v 16h 8a 8 8, 0, 0, 0, 0 -16" transform="rotate(90,442,186)"/><path d="M 434 226v 16h 8a 8 8, 0, 0, 0, 0 -16" transform="rotate(-90,442,234)"/><rect x="434" y="242" width="16" height="16" transform="rotate(0,442,250)"/><path d="M 434 258v 16h 8a 8 8, 0, 0, 0, 0 -16" transform="rotate(90,442,266)"/><path d="M 434 290v 16h 16v -8a 8 8, 0, 0, 0, -8 -8" transform="rotate(0,442,298)"/><path d="M 434 306v 16h 8a 8 8, 0, 0, 0, 0 -16" transform="rotate(90,442,314)"/><path d="M 434 354v 16h 8a 8 8, 0, 0, 0, 0 -16" transform="rotate(180,442,362)"/><path d="M 434 402v 16h 16v -8a 8 8, 0, 0, 0, -8 -8" transform="rotate(0,442,410)"/><path d="M 434 418v 16h 8a 8 8, 0, 0, 0, 0 -16" transform="rotate(90,442,426)"/><path d="M 434 450v 16h 16v -8a 8 8, 0, 0, 0, -8 -8" transform="rotate(0,442,458)"/><path d="M 434 466v 16h 8a 8 8, 0, 0, 0, 0 -16" transform="rotate(90,442,474)"/><path d="M 450 146v 16h 8a 8 8, 0, 0, 0, 0 -16" transform="rotate(0,458,154)"/><circle cx="458" cy="218" r="8" transform="rotate(0,458,218)"/><path d="M 450 338v 16h 16v -8a 8 8, 0, 0, 0, -8 -8" transform="rotate(-90,458,346)"/><path d="M 450 354v 16h 16v -8a 8 8, 0, 0, 0, -8 -8" transform="rotate(90,458,362)"/><path d="M 466 162v 16h 8a 8 8, 0, 0, 0, 0 -16" transform="rotate(-90,474,170)"/><rect x="466" y="178" width="16" height="16" transform="rotate(0,474,186)"/><path d="M 466 194v 16h 8a 8 8, 0, 0, 0, 0 -16" transform="rotate(90,474,202)"/><path d="M 466 242v 16h 8a 8 8, 0, 0, 0, 0 -16" transform="rotate(-90,474,250)"/><rect x="466" y="258" width="16" height="16" transform="rotate(0,474,266)"/><path d="M 466 274v 16h 8a 8 8, 0, 0, 0, 0 -16" transform="rotate(90,474,282)"/><path d="M 466 322v 16h 8a 8 8, 0, 0, 0, 0 -16" transform="rotate(-90,474,330)"/><path d="M 466 338v 16h 16v -8a 8 8, 0, 0, 0, -8 -8" transform="rotate(90,474,346)"/><path d="M 466 386v 16h 8a 8 8, 0, 0, 0, 0 -16" transform="rotate(-90,474,394)"/><rect x="466" y="402" width="16" height="16" transform="rotate(0,474,410)"/><path d="M 466 418v 16h 8a 8 8, 0, 0, 0, 0 -16" transform="rotate(90,474,426)"/><circle cx="474" cy="474" r="8" transform="rotate(0,474,474)"/></clipPath><clipPath id="clip-path-corners-square-color-0-0"><path clip-rule="evenodd" d="M 18 58v 32a 40 40, 0, 0, 0, 40 40h 32a 40 40, 0, 0, 0, 40 -40v -32a 40 40, 0, 0, 0, -40 -40h -32a 40 40, 0, 0, 0, -40 40M 58 34h 32a 24 24, 0, 0, 1, 24 24v 32a 24 24, 0, 0, 1, -24 24h -32a 24 24, 0, 0, 1, -24 -24v -32a 24 24, 0, 0, 1, 24 -24" transform="rotate(0,74,74)"/></clipPath><clipPath id="clip-path-corners-dot-color-0-0"><circle cx="74" cy="74" r="24" transform="rotate(0,74,74)"/></clipPath><clipPath id="clip-path-corners-square-color-1-0"><path clip-rule="evenodd" d="M 370 58v 32a 40 40, 0, 0, 0, 40 40h 32a 40 40, 0, 0, 0, 40 -40v -32a 40 40, 0, 0, 0, -40 -40h -32a 40 40, 0, 0, 0, -40 40M 410 34h 32a 24 24, 0, 0, 1, 24 24v 32a 24 24, 0, 0, 1, -24 24h -32a 24 24, 0, 0, 1, -24 -24v -32a 24 24, 0, 0, 1, 24 -24" transform="rotate(90,426,74)"/></clipPath><clipPath id="clip-path-corners-dot-color-1-0"><circle cx="426" cy="74" r="24" transform="rotate(90,426,74)"/></clipPath><clipPath id="clip-path-corners-square-color-0-1"><path clip-rule="evenodd" d="M 18 410v 32a 40 40, 0, 0, 0, 40 40h 32a 40 40, 0, 0, 0, 40 -40v -32a 40 40, 0, 0, 0, -40 -40h -32a 40 40, 0, 0, 0, -40 40M 58 386h 32a 24 24, 0, 0, 1, 24 24v 32a 24 24, 0, 0, 1, -24 24h -32a 24 24, 0, 0, 1, -24 -24v -32a 24 24, 0, 0, 1, 24 -24" transform="rotate(-90,74,426)"/></clipPath><clipPath id="clip-path-corners-dot-color-0-1"><circle cx="74" cy="426" r="24" transform="rotate(-90,74,426)"/></clipPath></defs><rect x="0" y="0" height="500" width="500" clip-path="url('#clip-path-background-color')" fill="#fff"/><rect x="0" y="0" height="500" width="500" clip-path="url('#clip-path-dot-color')" fill="#18417E"/><rect x="18" y="18" height="112" width="112" clip-path="url('#clip-path-corners-square-color-0-0')" fill="#18417E"/><rect x="50" y="50" height="48" width="48" clip-path="url('#clip-path-corners-dot-color-0-0')" fill="#18417E"/><rect x="370" y="18" height="112" width="112" clip-path="url('#clip-path-corners-square-color-1-0')" fill="#18417E"/><rect x="402" y="50" height="48" width="48" clip-path="url('#clip-path-corners-dot-color-1-0')" fill="#18417E"/><rect x="18" y="370" height="112" width="112" clip-path="url('#clip-path-corners-square-color-0-1')" fill="#18417E"/><rect x="50" y="402" height="48" width="48" clip-path="url('#clip-path-corners-dot-color-0-1')" fill="#18417E"/></svg>